# xmcd
#
# Track frame offsets: 
#        150
#        12637
#        29975
#        42617
#        59127
#        71080
#        86720
#        102517
#        116187
#        132287
#
# Disc length: 1922 seconds
#
# Revision: 1
# Processed by: cddbd v1.5.2PL0 Copyright (c) Steve Scherf et al.
# Submitted via: ExactAudioCopy v1.0b3
#
DISCID=a507800a
DTITLE=Deryl Dodd - Deryl Dodd
DYEAR=1998
DGENRE=Country
TTITLE0=It's Only Cause Your Lonely
TTITLE1=Best I Ever Had
TTITLE2=Bad For Good
TTITLE3=A Bitter End
TTITLE4=John Roland Wood
TTITLE5=30 - 30
TTITLE6=I Thought I'd Heard it All
TTITLE7=Good Idea Tomorrow
TTITLE8=On Any Given Day
TTITLE9=Somewhere Down The Road
EXTD=
EXTT0=
EXTT1=
EXTT2=
EXTT3=
EXTT4=
EXTT5=
EXTT6=
EXTT7=
EXTT8=
EXTT9=
PLAYORDER=
